<svg width="159" height="58" viewBox="0 0 159 58" fill="none" xmlns="http://www.w3.org/2000/svg">
<path d="M24.258 34.52C24.258 34.9733 23.838 35.6133 22.998 36.44C22.158 37.2667 21.498 37.8133 21.018 38.08C20.698 38.2933 20.3246 38.5 19.898 38.7C19.4713 38.9 19.0713 39.08 18.698 39.24C18.3246 39.4 17.978 39.54 17.658 39.66C17.338 39.78 17.0646 39.8867 16.838 39.98C16.6113 40.0733 16.4846 40.12 16.458 40.12C15.7913 40.4133 15.1113 40.6133 14.418 40.72C13.7246 40.8267 13.1713 40.8867 12.758 40.9C12.3446 40.9133 11.938 41 11.538 41.16C11.138 41.32 10.7846 41.6533 10.478 42.16C10.1713 42.6667 9.88464 43.4267 9.61797 44.44C9.4313 45.1333 9.20464 46.4133 8.93797 48.28C8.6713 50.1467 8.31797 51.7333 7.87797 53.04C7.43797 54.3467 6.77797 55.4267 5.89797 56.28C5.2313 56.92 4.62464 57.3467 4.07797 57.56C3.5313 57.7733 3.08464 57.8 2.73797 57.64C2.3913 57.48 2.07797 57.2133 1.79797 56.84C1.51797 56.4667 1.32464 56 1.21797 55.44C1.1113 54.88 1.0313 54.32 0.977968 53.76C0.924635 53.2 0.951302 52.64 1.05797 52.08C1.24464 50.64 1.58464 49.2067 2.07797 47.78C2.5713 46.3533 3.2513 44.66 4.11797 42.7C4.98464 40.74 5.56464 39.3867 5.85797 38.64C6.25797 37.6267 6.6313 36.4267 6.97797 35.04C7.00464 34.8533 7.05797 34.52 7.13797 34.04C7.21797 33.56 7.30464 33.1533 7.39797 32.82C7.4913 32.4867 7.6313 32.1867 7.81797 31.92C7.92464 31.76 8.10464 31.56 8.35797 31.32C8.6113 31.08 8.85797 30.8467 9.09797 30.62C9.33797 30.3933 9.57797 30.16 9.81797 29.92C10.058 29.68 10.2513 29.42 10.398 29.14C10.5446 28.86 10.618 28.5733 10.618 28.28C10.618 27.5867 11.0446 26.0933 11.898 23.8C12.7513 21.48 13.7113 19.2 14.778 16.96C16.6713 12.8533 17.7113 10.56 17.898 10.08C17.978 9.92 18.0646 9.7 18.158 9.42C18.2513 9.14 18.338 8.88 18.418 8.64C18.498 8.4 18.5913 8.14 18.698 7.86C18.8046 7.58 18.9246 7.32 19.058 7.08C19.1913 6.84 19.338 6.62 19.498 6.42C19.658 6.22 19.8446 6.05333 20.058 5.92C20.2713 5.78666 20.5113 5.69333 20.778 5.64C21.658 5.50667 22.3313 5.76 22.798 6.4C23.2646 7.04 23.4846 7.8 23.458 8.68C23.4313 9.64 23.3113 10.6333 23.098 11.66C22.8846 12.6867 22.6446 13.6 22.378 14.4C22.1113 15.2 21.7246 16.14 21.218 17.22C20.7113 18.3 20.2846 19.1533 19.938 19.78C19.5913 20.4067 19.098 21.3 18.458 22.46C17.818 23.62 17.3513 24.4667 17.058 25C16.338 26.3867 15.1846 28.3533 13.598 30.9C12.0113 33.4467 11.1113 34.9067 10.898 35.28C10.7113 35.5733 10.578 35.8267 10.498 36.04C10.418 36.2533 10.398 36.5 10.438 36.78C10.478 37.06 10.598 37.3 10.798 37.5C10.998 37.7 11.278 37.8333 11.638 37.9C11.998 37.9667 12.6046 38.04 13.458 38.12C13.938 38.1733 14.4646 38.1333 15.038 38C15.6113 37.8667 16.138 37.68 16.618 37.44C17.098 37.2 17.5846 36.94 18.078 36.66C18.5713 36.38 18.9846 36.1133 19.318 35.86C19.6513 35.6067 19.9446 35.3867 20.198 35.2C20.4513 35.0133 20.5913 34.92 20.618 34.92C21.2046 34.52 21.6846 34.1733 22.058 33.88C22.6446 33.3733 23.158 33.1667 23.598 33.26C24.038 33.3533 24.258 33.7733 24.258 34.52ZM5.37797 46.16C5.3513 46.1867 5.32464 46.24 5.29797 46.32C4.6313 48.6133 4.56464 50.08 5.09797 50.72C5.7113 49.6 6.1113 48.0533 6.29797 46.08C6.32464 45.84 6.28464 45.6667 6.17797 45.56C6.01797 45.4 5.8313 45.4133 5.61797 45.6C5.5113 45.7067 5.4313 45.8933 5.37797 46.16ZM28.2348 26.56C27.3548 27.6267 26.5948 28.6267 25.9548 29.56C25.3148 30.4933 25.0215 31.08 25.0748 31.32C25.0748 31.7467 25.4482 32.72 26.1948 34.24C27.1015 35.9733 28.1548 36.84 29.3548 36.84C29.5948 36.84 29.8415 36.8133 30.0948 36.76C30.3482 36.7067 30.6682 36.6133 31.0548 36.48C31.4415 36.3467 31.6882 36.2667 31.7948 36.24C32.0882 36.16 32.5682 35.92 33.2348 35.52C34.0615 35.0133 34.8482 34.4667 35.5948 33.88C36.1815 33.3733 36.6948 33.1667 37.1348 33.26C37.5748 33.3533 37.8082 33.7733 37.8348 34.52C37.8348 34.76 37.7748 35 37.6548 35.24C37.5348 35.48 37.4082 35.6867 37.2748 35.86C37.1415 36.0333 36.9482 36.2333 36.6948 36.46C36.4415 36.6867 36.2348 36.8533 36.0748 36.96C35.9148 37.0667 35.6882 37.22 35.3948 37.42C35.1015 37.62 34.9148 37.7467 34.8348 37.8C34.6215 37.9333 34.3015 38.1333 33.8748 38.4C33.4482 38.6667 33.1282 38.8667 32.9148 39C32.0082 39.6133 31.0882 39.9733 30.1548 40.08C29.2482 40.2133 28.5682 40.22 28.1148 40.1C27.6615 39.98 26.9948 39.6267 26.1148 39.04C24.9948 38.2667 24.0882 37.4267 23.3948 36.52C22.7015 35.6133 22.2348 34.7467 21.9948 33.92C21.7548 33.0933 21.6348 32.1333 21.6348 31.04C21.6348 29.9467 21.7015 28.9667 21.8348 28.1C21.9682 27.2333 22.1348 26.1667 22.3348 24.9C22.5348 23.6333 22.6482 22.5467 22.6748 21.64C22.7015 21.2933 22.7348 20.9333 22.7748 20.56C22.8148 20.1867 22.8548 19.8467 22.8948 19.54C22.9348 19.2333 22.9948 18.8667 23.0748 18.44C23.1548 18.0133 23.2148 17.68 23.2548 17.44C23.2948 17.2 23.3815 16.8467 23.5148 16.38C23.6482 15.9133 23.7348 15.5867 23.7748 15.4C23.8148 15.2133 23.9082 14.86 24.0548 14.34C24.2015 13.82 24.2948 13.4933 24.3348 13.36C24.3748 13.2267 24.4815 12.8733 24.6548 12.3C24.8282 11.7267 24.9282 11.3867 24.9548 11.28C25.2482 10.2933 25.5015 9.57333 25.7148 9.12C25.9548 8.64 26.2815 8.16667 26.6948 7.7C27.1082 7.23333 27.4815 6.85333 27.8148 6.56C28.1482 6.26666 28.5948 5.89333 29.1548 5.44C29.3682 5.28 29.7348 4.98666 30.2548 4.56C30.7748 4.13333 31.1548 3.83333 31.3948 3.66C31.6348 3.48667 31.9615 3.24667 32.3748 2.94C32.7882 2.63333 33.1882 2.36667 33.5748 2.14C33.9615 1.91333 34.3815 1.69333 34.8348 1.48C35.8482 0.973331 36.6348 0.786664 37.1948 0.919998C37.6215 1.02666 37.9815 1.26 38.2748 1.62C38.5682 1.98 38.7682 2.38667 38.8748 2.84C38.9548 3.16 39.0148 3.48666 39.0548 3.82C39.0948 4.15333 39.1015 4.51333 39.0748 4.9C39.0482 5.28666 39.0282 5.61333 39.0148 5.88C39.0015 6.14666 38.9415 6.50666 38.8348 6.96C38.7282 7.41333 38.6548 7.74 38.6148 7.94C38.5748 8.14 38.4682 8.48667 38.2948 8.98C38.1215 9.47333 38.0148 9.78667 37.9748 9.92C37.9348 10.0533 37.8148 10.3933 37.6148 10.94C37.4148 11.4867 37.3015 11.8 37.2748 11.88C36.6082 13.6667 36.0748 14.84 35.6748 15.4C35.4082 15.7733 34.6348 17.1733 33.3548 19.6C32.0482 22.0267 31.1415 23.48 30.6348 23.96C29.9148 24.6267 29.1148 25.4933 28.2348 26.56ZM27.7148 16.84C27.4215 17.1067 27.0815 18.0133 26.6948 19.56C26.3082 21.1067 26.2348 22 26.4748 22.24C26.6082 22.3467 26.8282 22.2333 27.1348 21.9C27.4415 21.5667 27.8148 21.0467 28.2548 20.34C28.6948 19.6333 29.1282 18.7867 29.5548 17.8C30.4348 16.04 30.8748 15.08 30.8748 14.92C30.8748 14.84 31.2882 13.9333 32.1148 12.2C32.9415 10.4933 33.3548 9.45333 33.3548 9.08C33.3548 8.30666 33.0082 8.22666 32.3148 8.84C31.8615 9.18667 31.4215 9.73333 30.9948 10.48C30.3282 11.7067 29.7015 12.6933 29.1148 13.44C28.5815 14.1333 28.3148 14.7867 28.3148 15.4C28.3148 15.9867 28.1148 16.4667 27.7148 16.84ZM58.7086 32.32C59.1086 32.5333 59.3086 33 59.3086 33.72C59.3353 34.5467 58.8686 35.32 57.9086 36.04C57.5619 36.28 57.1619 36.52 56.7086 36.76C56.6286 36.7867 56.5353 36.84 56.4286 36.92C56.0553 37.1333 55.7353 37.2533 55.4686 37.28C54.6686 37.3333 53.8953 37.0133 53.1486 36.32C52.9619 36.16 52.7619 35.88 52.5486 35.48L52.4286 35.28C52.1886 34.88 51.9619 34.6267 51.7486 34.52C51.5353 34.4133 51.2686 34.44 50.9486 34.6C50.5486 34.8133 50.0953 35.4667 49.5886 36.56C49.3486 37.12 49.1486 37.5067 48.9886 37.72C48.4819 38.4667 48.0419 38.8933 47.6686 39C47.1886 39.24 46.5353 39.6133 45.7086 40.12C44.6953 40.7333 43.7353 41.0667 42.8286 41.12C41.7886 41.2 41.0153 41.3067 40.5086 41.44C40.3753 41.4667 40.2419 41.48 40.1086 41.48C39.8153 41.48 39.5619 41.4267 39.3486 41.32C39.0286 41.1867 38.5619 40.8267 37.9486 40.24C37.2819 39.6267 36.8286 39.0867 36.5886 38.62C36.3486 38.1533 36.1086 37.3333 35.8686 36.16C35.4686 34.24 35.3753 32.7 35.5886 31.54C35.8019 30.38 36.3886 29.0267 37.3486 27.48C38.5753 25.5067 39.7353 24.08 40.8286 23.2C41.9219 22.32 43.2686 21.6933 44.8686 21.32C45.6419 21.16 46.3219 20.88 46.9086 20.48C47.8419 19.8667 48.6686 19.64 49.3886 19.8C50.0819 19.9333 50.8819 20.48 51.7886 21.44C52.2686 21.9733 52.6153 22.4 52.8286 22.72C53.0419 23.04 53.1886 23.3467 53.2686 23.64C53.3486 23.9333 53.3886 24.36 53.3886 24.92C53.3886 27.2933 53.4686 29.1333 53.6286 30.44C53.7086 31.2133 53.8886 31.8067 54.1686 32.22C54.4486 32.6333 54.9353 33.1333 55.6286 33.72L55.7486 33.64C56.2286 33.32 56.5753 33.0667 56.7886 32.88C57.5886 32.2667 58.2286 32.08 58.7086 32.32ZM49.4686 25.44C49.4686 24.4 49.3619 23.8267 49.1486 23.72C49.0953 23.7733 49.0419 23.84 48.9886 23.92C48.8553 24.16 48.8686 24.7067 49.0286 25.56C49.1353 26.1733 49.2419 26.56 49.3486 26.72C49.4286 26.5067 49.4686 26.08 49.4686 25.44ZM48.3086 31.6C48.4153 30.9867 48.4019 30.5467 48.2686 30.28C48.1619 30.0133 47.8286 29.6 47.2686 29.04C46.3886 28.1867 45.9486 27.48 45.9486 26.92C45.9486 26.5467 45.8286 26.1067 45.5886 25.6C45.3486 25.0933 45.1086 24.76 44.8686 24.6C44.6819 24.4667 44.5219 24.4 44.3886 24.4C44.2819 24.4 44.1886 24.4267 44.1086 24.48C43.8419 24.6133 43.2953 25.1067 42.4686 25.96C41.7486 26.68 41.0753 27.6 40.4486 28.72C39.8219 29.84 39.3619 30.8933 39.0686 31.88C38.7753 32.8133 38.7219 33.4933 38.9086 33.92C39.1219 34.32 39.2419 35 39.2686 35.96C39.3486 36.68 39.4553 37.2133 39.5886 37.56C39.7219 37.8533 39.9219 38.0533 40.1886 38.16C40.4819 38.2933 40.9619 38.36 41.6286 38.36C41.9486 38.36 42.2153 38.3467 42.4286 38.32C42.6419 38.32 42.8419 38.2933 43.0286 38.24C43.2153 38.1867 43.3886 38.12 43.5486 38.04C43.7353 37.9333 43.9219 37.8133 44.1086 37.68C44.2953 37.5467 44.5219 37.3733 44.7886 37.16C45.8019 36.36 46.3753 35.72 46.5086 35.24C46.6686 34.7333 46.9886 34.2 47.4686 33.64C47.8953 33.1867 48.1753 32.5067 48.3086 31.6ZM93.7864 32.52C94.3731 32.04 94.8864 31.84 95.3264 31.92C95.7664 32 95.9997 32.4267 96.0264 33.2C96.0264 33.8133 95.6797 34.46 94.9864 35.14C94.2931 35.82 93.6131 36.28 92.9464 36.52C92.5197 36.68 92.0531 36.6667 91.5464 36.48C91.0397 36.2933 90.6397 36.08 90.3464 35.84L89.9064 35.44C89.8797 35.44 89.7397 35.3467 89.4864 35.16C89.2331 34.9733 88.9331 34.7533 88.5864 34.5C88.2397 34.2467 87.8464 34 87.4064 33.76C86.9664 33.52 86.5597 33.3533 86.1864 33.26C85.8131 33.1667 85.4797 33.1733 85.1864 33.28C84.8131 33.4667 84.4331 33.8 84.0464 34.28C83.6597 34.76 83.2597 35.3267 82.8464 35.98C82.4331 36.6333 82.1331 37.0667 81.9464 37.28C81.4664 37.8667 81.0597 38.3067 80.7264 38.6C80.3931 38.8933 79.9864 39.16 79.5064 39.4C78.6531 39.8267 77.6331 40.02 76.4464 39.98C75.2597 39.94 74.1731 39.6933 73.1864 39.24C72.0664 38.68 71.2464 38.4067 70.7264 38.42C70.2064 38.4333 69.8131 38.7067 69.5464 39.24C69.3597 39.6133 69.1064 39.84 68.7864 39.92C68.4664 40 67.7731 39.9867 66.7064 39.88C65.8264 39.8 65.1064 39.68 64.5464 39.52C62.6797 38.9867 61.2597 38.16 60.2864 37.04C59.3131 35.92 58.8131 34.6667 58.7864 33.28C58.7597 31.8933 59.0131 30.4733 59.5464 29.02C60.0797 27.5667 60.8664 26.1467 61.9064 24.76C62.4131 24.0667 62.9197 23.68 63.4264 23.6C63.6664 23.5467 63.8397 23.5067 63.9464 23.48C64.1331 23.4533 64.3731 23.4133 64.6664 23.36C64.8797 23.36 65.1597 23.68 65.5064 24.32C65.7731 25.04 65.6797 26.0533 65.2264 27.36C64.6664 28.7467 64.3864 30.4667 64.3864 32.52C64.3864 33.96 64.4264 34.8467 64.5064 35.18C64.5864 35.5133 64.8264 35.72 65.2264 35.8C65.7331 35.8267 66.4531 35.3867 67.3864 34.48C68.3197 33.5733 68.7864 32.84 68.7864 32.28C68.7864 31.88 69.1331 31.44 69.8264 30.96C70.6264 30.4267 71.4664 29.4667 72.3464 28.08C73.2797 26.56 74.1064 25.72 74.8264 25.56C76.1331 25.2133 76.9464 25.4667 77.2664 26.32C77.5864 27.1733 77.2931 28.2667 76.3864 29.6C75.6931 30.56 75.1331 31.6933 74.7064 33C74.2797 34.3067 74.1864 35.12 74.4264 35.44C74.5331 35.7067 74.9864 35.84 75.7864 35.84C76.5331 35.84 77.6397 35.06 79.1064 33.5C80.5731 31.94 81.4664 30.5867 81.7864 29.44C82.0531 28.2933 82.4664 27.2667 83.0264 26.36C83.3731 25.8 83.6931 25.4267 83.9864 25.24C84.2797 25.0533 84.7197 24.96 85.3064 24.96C85.8931 24.96 86.3331 25.18 86.6264 25.62C86.9197 26.06 87.0931 26.5667 87.1464 27.14C87.1997 27.7133 87.3264 28.34 87.5264 29.02C87.7264 29.7 88.0131 30.2133 88.3864 30.56C88.6264 30.7733 88.9997 31.0267 89.5064 31.32C90.9997 32.2533 92.1731 32.8 93.0264 32.96C93.0264 32.96 93.0397 32.96 93.0664 32.96C93.4131 32.7733 93.6531 32.6267 93.7864 32.52ZM111.257 35.52C111.844 35.04 112.357 34.8467 112.797 34.94C113.237 35.0333 113.457 35.4533 113.457 36.2C113.484 36.44 113.437 36.68 113.317 36.92C113.197 37.16 113.07 37.3667 112.937 37.54C112.804 37.7133 112.61 37.9067 112.357 38.12C112.104 38.3333 111.897 38.4933 111.737 38.6C111.577 38.7067 111.344 38.86 111.037 39.06C110.73 39.26 110.55 39.3867 110.497 39.44C109.857 39.8667 109.204 40.2267 108.537 40.52C108.484 40.5467 108.41 40.58 108.317 40.62C108.224 40.66 108.124 40.7 108.017 40.74C107.91 40.78 107.804 40.82 107.697 40.86C107.59 40.9 107.504 40.9333 107.437 40.96L107.337 41C105.71 41.6667 103.964 42.0533 102.097 42.16C100.177 42.2667 98.777 42.0933 97.897 41.64C97.7904 41.5867 97.3637 41.4 96.617 41.08C95.8704 40.76 95.337 40.48 95.017 40.24C94.4037 39.84 93.817 38.9733 93.257 37.64C92.217 35.24 91.697 33.12 91.697 31.28C91.697 30.16 91.897 28.6933 92.297 26.88C92.3237 26.7733 92.3704 26.5467 92.437 26.2C92.5037 25.8533 92.5637 25.5933 92.617 25.42C92.6704 25.2467 92.737 25.0067 92.817 24.7C92.897 24.3933 92.977 24.1333 93.057 23.92C93.137 23.7067 93.2304 23.4867 93.337 23.26C93.4437 23.0333 93.5504 22.8267 93.657 22.64C94.217 21.8667 94.6704 21.3067 95.017 20.96C96.457 19.4667 98.2837 18.8 100.497 18.96C102.79 19.1467 104.03 19.9067 104.217 21.24C104.377 22.28 104.317 23.3533 104.037 24.46C103.757 25.5667 103.41 26.48 102.997 27.2C102.584 27.92 102.01 28.8533 101.277 30C100.544 31.1467 100.017 32.0267 99.697 32.64C98.5237 34.8533 97.937 36.1733 97.937 36.6C97.937 36.9467 98.2704 37.44 98.937 38.08C99.3637 38.48 99.7437 38.72 100.077 38.8C100.41 38.88 101.017 38.84 101.897 38.68C103.284 38.4933 104.79 38.16 106.417 37.68C107.03 37.4667 107.924 37.1067 109.097 36.6C110.27 36.0933 110.99 35.7333 111.257 35.52ZM95.737 32.68C95.977 32.68 96.6437 31.64 97.737 29.56C98.8037 27.48 99.337 26.2267 99.337 25.8C99.337 25.2933 99.0637 24.9667 98.517 24.82C97.9704 24.6733 97.537 24.8 97.217 25.2C96.9504 25.52 96.6837 26 96.417 26.64C96.1504 27.28 95.937 27.9333 95.777 28.6C95.6437 29.2667 95.5237 29.9067 95.417 30.52C95.3104 31.1333 95.2837 31.6467 95.337 32.06C95.3904 32.4733 95.5237 32.68 95.737 32.68ZM136.065 33.52C136.625 33.0133 137.125 32.8067 137.565 32.9C138.005 32.9933 138.238 33.4133 138.265 34.16C138.265 34.3733 138.232 34.58 138.165 34.78C138.098 34.98 137.992 35.1667 137.845 35.34C137.698 35.5133 137.552 35.68 137.405 35.84C137.258 36 137.078 36.16 136.865 36.32C136.652 36.48 136.472 36.6133 136.325 36.72C136.178 36.8267 135.985 36.9533 135.745 37.1C135.505 37.2467 135.345 37.36 135.265 37.44C134.625 37.8667 133.972 38.2133 133.305 38.48C133.252 38.5067 133.172 38.5467 133.065 38.6C133.012 38.7333 132.905 38.84 132.745 38.92C132.585 39 132.345 39.08 132.025 39.16C131.412 39.5067 130.505 39.7467 129.305 39.88C128.105 40.0133 127.012 40.0467 126.025 39.98C125.038 39.9133 124.398 39.8 124.105 39.64C123.865 39.48 123.598 39.1467 123.305 38.64C123.012 38.1333 122.758 37.6267 122.545 37.12C122.332 36.6133 122.198 36.2267 122.145 35.96C121.958 35.1867 121.892 34.36 121.945 33.48C122.025 32.5733 122.172 31.16 122.385 29.24V28.68C122.385 28.5467 122.338 28.4467 122.245 28.38C122.152 28.3133 122.025 28.2667 121.865 28.24C121.705 28.24 121.492 28.24 121.225 28.24C120.905 28.24 120.545 28.1867 120.145 28.08C119.745 27.9733 119.352 27.8733 118.965 27.78C118.578 27.6867 118.238 27.64 117.945 27.64C117.972 27.64 117.878 28.06 117.665 28.9C117.452 29.74 117.178 30.6267 116.845 31.56C116.512 32.4933 116.212 33.04 115.945 33.2C114.985 33.76 113.972 34.16 112.905 34.4C111.518 34.72 112.145 31.6933 114.785 25.32C114.838 25.16 114.972 24.8267 115.185 24.32C115.398 23.8133 115.545 23.46 115.625 23.26C115.705 23.06 115.832 22.74 116.005 22.3C116.178 21.86 116.305 21.5 116.385 21.22C116.465 20.94 116.552 20.6 116.645 20.2C116.738 19.8 116.805 19.42 116.845 19.06C116.885 18.7 116.905 18.3333 116.905 17.96C116.905 17.5333 117.178 16.7733 117.725 15.68C118.272 14.5867 118.705 13.92 119.025 13.68C119.452 13.44 120.032 13.3533 120.765 13.42C121.498 13.4867 121.985 13.6533 122.225 13.92C122.545 14.32 122.545 15.8667 122.225 18.56C121.985 20.32 121.878 21.4533 121.905 21.96C121.932 22.4933 122.078 22.92 122.345 23.24C122.665 23.5067 122.945 23.6333 123.185 23.62C123.425 23.6067 123.878 23.4 124.545 23C125.532 22.44 126.245 22.1733 126.685 22.2C127.125 22.2267 127.532 22.5333 127.905 23.12C128.198 23.5467 128.332 23.9333 128.305 24.28C128.278 24.6267 128.078 25.2933 127.705 26.28C127.172 27.6933 126.692 29.3067 126.265 31.12C125.945 32.56 125.845 33.6267 125.965 34.32C126.085 35.0133 126.518 35.8267 127.265 36.76C127.585 37.2133 127.838 37.4667 128.025 37.52C128.105 37.5467 128.245 37.5267 128.445 37.46C128.645 37.3933 128.858 37.3133 129.085 37.22C129.312 37.1267 129.465 37.0667 129.545 37.04C130.372 36.8267 130.918 36.6533 131.185 36.52C133.238 35.4533 134.865 34.4533 136.065 33.52ZM155.948 32.44C156.534 31.9333 157.048 31.7267 157.488 31.82C157.928 31.9133 158.148 32.3467 158.148 33.12C158.148 33.28 158.121 33.4533 158.068 33.64C158.014 33.8267 157.941 33.9933 157.848 34.14C157.754 34.2867 157.634 34.44 157.488 34.6C157.341 34.76 157.194 34.9 157.048 35.02C156.901 35.14 156.734 35.2667 156.548 35.4C156.361 35.5333 156.201 35.6467 156.068 35.74C155.934 35.8333 155.774 35.9467 155.588 36.08C155.401 36.2133 155.268 36.3067 155.188 36.36C154.548 36.7867 153.881 37.1467 153.188 37.44C153.134 37.4667 153.001 37.5333 152.788 37.64C152.068 38.3867 151.428 38.8933 150.868 39.16C150.334 39.3733 149.628 39.5067 148.748 39.56C147.841 39.8267 147.214 39.8 146.868 39.48C146.761 39.48 146.448 39.4533 145.928 39.4C145.408 39.3467 145.054 39.3133 144.868 39.3C144.681 39.2867 144.394 39.28 144.008 39.28C143.621 39.28 143.288 39.32 143.008 39.4C142.728 39.48 142.454 39.5867 142.188 39.72C141.841 39.9333 141.401 40.0267 140.868 40C140.334 39.9733 139.414 39.8667 138.108 39.68C137.174 39.5467 136.388 39.4533 135.748 39.4C135.614 39.4 135.468 39.4 135.308 39.4C135.148 39.4 134.974 39.3933 134.788 39.38C134.601 39.3667 134.454 39.32 134.348 39.24C134.054 39.0533 133.694 38.3333 133.268 37.08C133.028 36.36 132.881 35.6133 132.828 34.84C132.774 34.52 132.774 34.2667 132.828 34.08C132.961 33.4133 133.174 33 133.468 32.84C133.574 32.7867 133.774 32.7333 134.068 32.68C134.361 32.6267 134.574 32.5333 134.708 32.4C134.948 32.2133 135.148 31.9067 135.308 31.48C135.468 31.0267 135.561 30.56 135.588 30.08C135.614 29.6533 135.654 29.3733 135.708 29.24C135.814 29.08 136.021 28.9067 136.328 28.72C136.634 28.5333 136.801 28.4267 136.828 28.4C137.148 28.1333 137.428 27.7733 137.668 27.32C137.774 27.08 137.988 26.3333 138.308 25.08C138.601 24.0933 138.841 23.08 139.028 22.04C139.214 21.0267 139.348 20.16 139.428 19.44C139.561 17.7867 139.741 16.8133 139.968 16.52C140.194 16.2267 140.621 16.0867 141.248 16.1C141.874 16.1133 142.414 16.2933 142.868 16.64C143.081 16.7733 143.274 16.9933 143.448 17.3C143.621 17.6067 143.748 17.88 143.828 18.12C143.908 18.36 144.008 18.6933 144.128 19.12C144.248 19.5467 144.334 19.8267 144.388 19.96C144.868 21.4 145.214 22.7333 145.428 23.96C145.508 24.44 145.601 25.14 145.708 26.06C145.814 26.98 145.934 27.8133 146.068 28.56C146.201 29.3067 146.388 30 146.628 30.64C147.054 31.8133 147.201 32.8667 147.068 33.8C146.988 34.3867 146.948 34.9333 146.948 35.44C146.948 35.9467 147.114 36.36 147.448 36.68C147.781 37 148.294 37.1333 148.988 37.08C149.281 37.0533 149.574 36.9867 149.868 36.88C150.161 36.7733 150.408 36.6667 150.608 36.56C150.808 36.4533 151.061 36.28 151.368 36.04C151.674 35.8 151.881 35.6333 151.988 35.54C152.094 35.4467 152.321 35.24 152.668 34.92C153.068 34.5467 153.688 34.06 154.528 33.46C155.368 32.86 155.841 32.52 155.948 32.44ZM141.348 35.16C142.548 34.8933 143.254 34.3 143.468 33.38C143.681 32.46 143.454 30.9733 142.788 28.92C142.121 26.9733 141.708 26 141.548 26C141.361 26 141.201 26.3733 141.068 27.12C140.908 27.8133 140.708 28.32 140.468 28.64C140.148 29.0933 139.641 30.06 138.948 31.54C138.254 33.02 137.961 33.84 138.068 34C138.201 34.1867 138.468 34.3867 138.868 34.6C139.268 34.8133 139.701 34.9733 140.168 35.08C140.634 35.1867 141.028 35.2133 141.348 35.16Z" fill="#005047" style="fill:#005047;fill:color(display-p3 0.0000 0.3137 0.2784);fill-opacity:1;"/>
</svg>
