<svg xmlns="http://www.w3.org/2000/svg" viewBox="0 0 24 24" width="24" height="24" color="#000000" fill="none">
    <defs />
    <path fill="#141B34" opacity="0.4" d="M1.293,2.972 C1.325,2.612 1.612,2.325 1.973,2.293 C2.22,2.27 2.619,2.256 2.9,2.252 C3.46,2.244 4.235,2.26 5.091,2.355 C6.763,2.54 8.924,3.046 10.326,4.448 C12.225,6.347 12.225,9.426 10.326,11.326 C8.426,13.225 5.347,13.225 3.448,11.326 C2.046,9.924 1.54,7.763 1.355,6.091 C1.26,5.235 1.244,4.46 1.252,3.9 C1.256,3.625 1.283,3.151 1.292,2.982 Z M22.728,6.201 C22.736,6.344 22.745,6.548 22.748,6.799 C22.756,7.299 22.742,7.991 22.656,8.757 C22.491,10.247 22.039,12.193 20.772,13.46 C19.051,15.18 16.261,15.18 14.54,13.46 C12.82,11.739 12.82,8.949 14.54,7.228 C15.807,5.961 17.753,5.509 19.243,5.344 C20.009,5.259 20.701,5.245 21.201,5.252 C21.452,5.255 21.656,5.264 21.799,5.272 C21.871,5.276 22.032,5.288 22.032,5.288 C22.392,5.321 22.679,5.607 22.712,5.968 C22.712,5.968 22.724,6.129 22.728,6.201 Z" />
    <path fill="#141B34" d="M6.48,6.424 C6.48,6.424 6.684,6.603 6.772,6.686 C6.947,6.851 7.194,7.094 7.489,7.413 C8.077,8.05 8.856,8.992 9.634,10.224 C10.609,11.769 11.585,13.773 12.179,16.203 C12.781,14.695 13.601,13.423 14.414,12.407 C15.199,11.426 15.983,10.674 16.573,10.166 C16.868,9.912 17.116,9.718 17.292,9.586 C17.38,9.52 17.584,9.376 17.584,9.376 C17.929,9.146 18.394,9.239 18.624,9.584 C18.854,9.928 18.76,10.394 18.416,10.624 C18.416,10.624 18.268,10.729 18.192,10.786 C18.04,10.9 17.819,11.073 17.552,11.303 C17.017,11.764 16.301,12.45 15.586,13.344 C14.155,15.132 12.755,17.715 12.75,20.983 L12.75,21 C12.75,21.047 12.746,21.094 12.737,21.138 C12.727,21.192 12.712,21.243 12.691,21.292 C12.577,21.561 12.311,21.75 12,21.75 C11.586,21.75 11.25,21.414 11.25,21 L11.25,20.983 C11.246,16.664 9.807,13.307 8.366,11.026 C7.644,9.883 6.923,9.012 6.386,8.431 C6.118,8.14 5.896,7.922 5.744,7.779 C5.668,7.707 5.519,7.576 5.519,7.576 C5.202,7.311 5.159,6.838 5.424,6.52 C5.689,6.202 6.162,6.159 6.48,6.424 Z" />
</svg>