<svg width="370" height="104" viewBox="0 0 370 104" fill="none" xmlns="http://www.w3.org/2000/svg">
<path fill-rule="evenodd" clip-rule="evenodd" d="M164.48 2.32169C165.723 2.32178 166.743 2.67567 167.452 3.38527C168.157 4.09031 168.418 5.01014 168.418 5.87114C168.418 7.39409 167.733 9.13403 166.742 10.8952C165.733 12.687 164.327 14.6357 162.718 16.6095C159.497 20.5596 155.383 24.7069 151.779 28.0516C144.473 34.8398 135.484 42.5308 124.818 51.1241L90.8597 91.8739L90.8607 91.8749C89.9109 93.0154 89.0112 94.2612 88.3545 95.4683C87.6865 96.6965 87.3273 97.7799 87.3272 98.6246C87.3272 99.3363 87.5276 99.7506 87.764 99.9873C88.0005 100.224 88.4145 100.424 89.1258 100.424C90.4123 100.424 92.0767 99.922 94.0661 98.9237C96.0367 97.9348 98.2343 96.5064 100.56 94.7666C105.212 91.288 110.288 86.6318 114.964 81.9524L123.282 73.6288L123.312 73.6581L123.367 73.6027C129.588 67.3774 136.968 60.8443 144.006 55.8585C147.525 53.3659 150.979 51.245 154.176 49.7437C157.356 48.2504 160.366 47.329 162.974 47.3289C164.78 47.3289 166.311 47.7994 167.399 48.8025C168.499 49.8166 168.998 51.2398 168.998 52.8351C168.998 54.6734 168.425 56.7032 167.518 58.7847C166.607 60.8774 165.328 63.0911 163.849 65.3157C160.985 69.6228 157.312 74.0487 153.933 77.8329C154.152 79.1855 154.634 80.1548 155.274 80.7947C155.969 81.4907 156.951 81.8989 158.28 81.899C160.079 81.899 161.829 81.1976 163.587 80.0249C165.349 78.849 167.045 77.2509 168.736 75.5594L170.666 73.6288L170.671 73.634L179.83 64.4696C184.382 59.9144 188.63 55.6959 192.448 52.6196C194.359 51.0795 196.194 49.7996 197.934 48.9018C199.67 48.0069 201.375 47.4586 203.011 47.4586C204.726 47.4587 206.149 48.0945 207.123 49.2605C208.077 50.4016 208.513 51.9418 208.513 53.6163C208.513 55.6067 207.82 57.8648 206.688 60.1296C205.55 62.4084 203.93 64.7658 201.988 66.9764L177.741 94.6338L177.73 94.6463L177.719 94.6578C176.044 96.4535 175.66 97.8985 175.66 98.885C175.66 99.4329 175.858 99.7801 176.127 100.007C176.418 100.253 176.874 100.423 177.457 100.423C179.217 100.423 181.611 99.4481 184.486 97.5934C187.32 95.765 190.468 93.1848 193.696 90.2048C200.151 84.2481 206.831 76.7861 211.837 70.802L230.278 48.632H239.322L201.355 94.2217C199.447 96.5128 198.866 98.0944 198.866 99.0157C198.866 99.5486 199.035 99.8578 199.243 100.045C199.467 100.246 199.87 100.423 200.534 100.423C202.046 100.423 204.194 99.5993 206.867 97.9751C209.499 96.3763 212.49 94.098 215.646 91.4012C221.887 86.0686 228.682 79.1822 234.496 72.9218C235.931 66.8676 240.412 59.6849 244.686 54.501L244.689 54.4969L249.573 48.632H259.152L257.672 50.3921C250.77 58.6029 239.405 71.8051 237.163 74.181L237.153 74.1925L237.133 74.2124C236.919 75.001 236.804 76.03 236.804 76.8384C236.804 78.6297 237.251 79.8695 237.96 80.6524C238.654 81.4184 239.736 81.898 241.339 81.898C243.071 81.8979 244.686 81.2625 246.433 80.0511C247.753 79.1357 249.106 77.9221 250.606 76.4661L253.208 73.8641C260.344 66.7233 267.95 60.1264 274.707 55.3063C278.084 52.897 281.27 50.9173 284.092 49.5356C286.886 48.1675 289.436 47.329 291.51 47.3289C292.655 47.3289 293.687 47.7009 294.439 48.4291C295.192 49.1596 295.579 50.1669 295.579 51.2695C295.579 52.5745 295.121 53.9278 294.382 55.276C293.64 56.6309 292.578 58.0454 291.284 59.4916C288.695 62.3834 285.085 65.4998 280.963 68.6403C272.779 74.8759 262.438 81.3058 253.668 86.3834C251.987 88.8266 250.631 91.0594 249.693 92.9668C248.713 94.9606 248.255 96.4706 248.255 97.4512C248.255 98.5646 248.558 99.2678 248.984 99.6944C249.411 100.121 250.113 100.424 251.226 100.424C253.429 100.424 256.162 99.5772 259.25 98.0557C262.317 96.5437 265.64 94.413 268.992 91.9555C275.696 87.0413 282.434 80.8856 287.364 75.9515L289.686 73.6288L289.702 73.6455L311.204 52.2536C311.289 48.2871 312.954 44.5257 315.459 41.2277L315.78 40.8052H325.62L324.017 42.5914C318.634 48.5901 315.877 51.5002 314.14 53.2544C314.239 54.3933 314.741 55.184 315.468 55.7267C316.321 56.3637 317.573 56.7202 319.049 56.7202H327.2L295.753 94.4832C293.827 96.7958 293.393 97.9788 293.393 98.885C293.393 99.431 293.589 99.7718 293.864 99.9967C294.165 100.243 294.655 100.423 295.322 100.423C296.248 100.423 297.478 100.06 299.016 99.274C300.537 98.4966 302.27 97.3515 304.173 95.8971C307.979 92.9889 312.371 88.919 316.988 84.2991L327.654 73.6278L327.66 73.634L360.47 40.8052H369.517L370 42.832L357.614 49.0932L357.61 49.0953C355.545 50.1286 354.501 50.8496 353.977 51.3741C352.948 52.4041 352.065 54.2447 350.82 58.2105C349.588 62.1343 348.066 67.9029 345.648 76.6031C343.065 85.8869 339.326 93.0968 332.983 97.8674C341.999 94.0632 351.385 86.8149 363.807 74.3849L364.563 73.6278L366.598 75.6639L365.841 76.4211C348.632 93.6419 334.533 104 317.76 104C314.497 104 311.262 103.323 308.984 102.652L307.42 102.192L314 94.2908L314.772 95.6022C316.046 97.7701 317.725 99.9015 320.889 99.9015C323.982 99.9015 327.005 98.1512 329.73 95.0322C332.448 91.9219 334.768 87.5577 336.432 82.6269C337.661 78.9351 338.861 74.7833 340.034 70.6734C340.767 68.1063 341.494 65.5543 342.206 63.1509L327.929 77.4397L327.92 77.4313L319.023 86.3353C314.389 90.9726 309.915 95.1906 305.894 98.2533C303.883 99.7852 301.96 101.048 300.167 101.931C298.384 102.81 296.658 103.347 295.061 103.347C293.317 103.347 291.861 102.769 290.854 101.633C289.865 100.517 289.427 98.9945 289.427 97.3194C289.427 93.5787 291.678 88.3851 295.54 83.7208L295.542 83.7187L315.943 59.2208C314.076 58.5838 312.564 57.3559 311.762 55.6378L289.976 77.4397L289.962 77.424L289.399 77.9877C284.425 82.9651 277.603 89.2686 270.698 94.3357C267.246 96.8691 263.75 99.1099 260.437 100.721C257.14 102.325 253.938 103.348 251.096 103.348C248.893 103.348 247.026 102.607 245.716 101.197C244.416 99.7972 243.768 97.8498 243.768 95.6242C243.768 92.9497 244.604 89.7702 245.884 86.6271C246.423 85.3016 247.047 83.9681 247.733 82.6646C245.749 83.9915 243.686 84.823 241.339 84.8231C239.096 84.8231 237.19 84.129 235.851 82.7095C234.668 81.455 234.032 79.743 233.905 77.7336C228.766 83.2515 222.835 89.1913 217.211 93.9467C214.034 96.6328 210.93 98.9619 208.106 100.625C205.315 102.268 202.656 103.347 200.403 103.347C198.639 103.347 197.191 102.723 196.196 101.601C195.218 100.497 194.77 99.0157 194.77 97.4501C194.77 95.8686 195.289 94.016 196.146 92.0486C196.192 91.9439 196.241 91.8395 196.288 91.7338C193.581 94.2554 190.915 96.5307 188.389 98.3799C186.351 99.8721 184.383 101.103 182.544 101.966C180.715 102.824 178.947 103.347 177.327 103.347C175.561 103.347 174.105 102.722 173.108 101.554C172.13 100.409 171.695 98.8632 171.695 97.1887C171.695 93.3061 173.955 88.2364 178.091 83.5639L202.727 55.5186C204.269 53.737 204.417 52.6774 204.417 51.921C204.417 51.4201 204.236 51.0564 203.975 50.8125C203.707 50.5621 203.293 50.3827 202.749 50.3827C201.76 50.3827 200.54 50.7523 199.065 51.5404C197.602 52.3228 195.966 53.4749 194.168 54.9371C190.568 57.8641 186.435 61.9336 181.865 66.5069L170.939 77.4397L170.933 77.4334L170.771 77.5966C169.071 79.2974 167.182 81.0909 165.132 82.4585C163.08 83.8279 160.786 84.8241 158.28 84.8241C156.304 84.824 154.599 84.2334 153.326 83.0787C152.551 82.3759 151.971 81.4966 151.587 80.4861C146.714 85.7904 141.129 91.2045 135.786 95.4213C132.863 97.7281 129.992 99.6958 127.332 101.091C124.693 102.474 122.163 103.348 119.952 103.348C118.138 103.348 116.553 102.735 115.435 101.471C114.332 100.224 113.797 98.4735 113.797 96.4075C113.797 93.8044 114.565 90.7926 115.775 87.6415C116.312 86.2436 116.942 84.8048 117.642 83.3443L116.999 83.9885C112.291 88.6996 107.099 93.5028 102.232 97.1353C99.7981 98.9514 97.4224 100.492 95.2105 101.583C93.0139 102.666 90.8942 103.348 88.9952 103.348C87.1802 103.348 85.6633 102.734 84.612 101.556C83.576 100.395 83.1018 98.8097 83.1018 97.06C83.1018 94.8131 83.8887 92.2005 85.1282 89.6024C86.376 86.9871 88.1213 84.3037 90.1281 81.8938L90.1302 81.8917L95.9985 74.867L92.8809 77.9877C82.1836 88.6921 74.8398 95.5199 67.3466 101.176L66.5157 101.803L64.6554 99.4748L65.5385 98.8118C72.7782 93.3784 80.1673 86.6373 90.8461 75.9515L103.883 62.9062C108.573 58.2132 113.892 52.8891 117.526 48.9938L142.929 18.4919C147.203 13.3593 151.336 9.34885 154.989 6.61157C158.59 3.91341 161.895 2.32169 164.48 2.32169ZM320.852 102.806C319.83 102.887 318.799 102.928 317.759 102.928L317.76 102.929C318.8 102.929 319.83 102.887 320.852 102.806ZM84.1761 97.3497C84.2784 100.319 85.964 102.278 88.9952 102.278C90.2043 102.278 91.5631 101.955 93.0356 101.376C91.5637 101.955 90.205 102.275 88.9962 102.275C85.965 102.275 84.2794 100.317 84.1772 97.3476L84.172 97.06L84.1761 97.3497ZM152.153 78.2722C141.854 89.7522 127.774 102.275 119.952 102.275C118.781 102.275 117.774 101.983 116.973 101.419C117.774 101.984 118.78 102.278 119.952 102.278C127.774 102.278 141.854 89.7542 152.153 78.2743V78.2722ZM256.425 101.246C254.519 101.907 252.725 102.275 251.097 102.275C249.876 102.275 248.808 102.022 247.916 101.55C248.808 102.022 249.875 102.278 251.096 102.278C252.725 102.278 254.518 101.907 256.425 101.246ZM201.159 102.233C201.149 102.234 201.138 102.234 201.128 102.235C201.268 102.22 201.41 102.202 201.554 102.178L201.159 102.233ZM314.512 57.3048C315.432 57.9675 316.58 58.4054 317.876 58.5744L296.364 84.4048C292.583 88.9706 290.498 93.9277 290.498 97.3194C290.498 99.3815 291.237 100.95 292.673 101.73C291.238 100.949 290.5 99.3807 290.5 97.3194C290.5 93.9276 292.586 88.9705 296.366 84.4048L317.878 58.5744C316.582 58.4053 315.432 57.9679 314.512 57.3048ZM326.382 101.17C325.683 101.338 324.982 101.49 324.278 101.624L324.148 101.233L324.147 101.234L324.277 101.625C324.982 101.491 325.683 101.338 326.382 101.17ZM317.745 85.0563C308.489 94.3183 300.015 101.493 295.322 101.493L295.323 101.494C300.016 101.494 308.491 94.3196 317.747 85.0574L327.654 75.1421L317.745 85.0563ZM324.542 101.098C324.581 101.084 324.621 101.072 324.66 101.058L324.674 101.053C324.63 101.068 324.586 101.083 324.542 101.098ZM320.479 100.961C320.613 100.968 320.749 100.972 320.888 100.972L320.54 100.965C320.519 100.964 320.499 100.962 320.479 100.961ZM163.496 50.253C161.838 50.253 159.608 51.0816 156.961 52.6479C154.349 54.1939 151.464 56.3761 148.533 58.8976C142.671 63.9389 136.715 70.2541 132.508 75.3063C127.969 80.756 124.354 85.7665 121.88 89.8816C120.642 91.9401 119.701 93.7584 119.072 95.2832C118.433 96.8311 118.154 97.9881 118.154 98.7553C118.154 99.4156 118.295 99.7782 118.485 99.982C118.663 100.173 119.072 100.424 120.082 100.424C121.766 100.424 123.962 99.6804 126.539 98.269C129.09 96.8718 131.904 94.8836 134.792 92.5422C140.459 87.9486 146.328 82.0641 150.953 76.8227C150.957 74.0997 152.02 71.0241 153.515 68.0996C155.023 65.1479 157.026 62.2448 159.024 59.8461L160.709 57.7692L161.031 57.3739H164.89C165.709 55.5086 166.076 54.0525 166.076 52.9658C166.076 52.0112 165.789 51.3542 165.386 50.9411C164.986 50.5305 164.368 50.253 163.496 50.253ZM66.7028 100.319L66.1812 99.6662L66.1802 99.6683L66.7017 100.321C67.1551 99.9786 67.6071 99.6309 68.0604 99.2792C67.6077 99.6304 67.1556 99.9769 66.7028 100.319ZM335.774 97.7785C333.727 98.77 331.705 99.5847 329.679 100.241C331.704 99.5847 333.727 98.7709 335.773 97.7796L335.774 97.7785ZM326.827 100.206C326.918 100.166 327.01 100.127 327.1 100.087L327.189 100.046C327.069 100.1 326.948 100.153 326.827 100.206ZM206.92 99.1903C206.489 99.4426 206.067 99.6756 205.655 99.89C206.066 99.6758 206.489 99.4434 206.919 99.1914L206.92 99.1903ZM68.3906 99.0209C68.6977 98.7811 69.0067 98.5409 69.3145 98.2962L69.4901 98.155C69.1233 98.4476 68.7563 98.7353 68.3906 99.0209ZM195.909 98.4206C195.922 98.5067 195.937 98.5917 195.953 98.6758C195.923 98.5211 195.899 98.3631 195.881 98.2021L195.909 98.4206ZM327.751 98.3893C327.648 98.4687 327.544 98.5464 327.441 98.6225C327.544 98.5466 327.647 98.4694 327.75 98.3903L327.751 98.3893ZM235.472 73.4458C227.039 82.5411 216.45 93.0522 208.45 98.2449C213.32 95.0842 219.148 89.9531 224.866 84.3703C226.091 83.1738 227.312 81.957 228.517 80.734C230.123 79.1036 231.701 77.4626 233.226 75.847C233.989 75.0391 234.739 74.2367 235.472 73.4458ZM247.185 97.4501C247.185 97.6341 247.192 97.8123 247.207 97.9845C247.199 97.8887 247.192 97.7912 247.189 97.6917L247.185 97.4501ZM313.848 96.146L314.1 96.5654C314.339 96.954 314.602 97.3471 314.891 97.7325C314.498 97.2074 314.155 96.6657 313.849 96.145L313.848 96.146ZM244.838 95.6242L244.845 95.9996C244.867 96.6136 244.947 97.1918 245.079 97.7304C244.92 97.0831 244.838 96.3792 244.838 95.6242ZM87.415 94.9538C87.1991 95.3506 87.0097 95.7472 86.8464 96.1366C87.0095 95.7479 87.1985 95.3519 87.4139 94.9559L87.415 94.9538ZM84.3747 95.0511C84.3351 95.2609 84.3026 95.4682 84.2744 95.6723C84.3027 95.4672 84.3359 95.2589 84.3758 95.0479L84.3747 95.0511ZM341.652 94.4926C341.116 94.831 340.582 95.1542 340.052 95.4683C340.581 95.1544 341.116 94.8318 341.651 94.4936L341.652 94.4926ZM199.554 94.8022C199.518 94.8533 199.484 94.9053 199.449 94.9559C199.495 94.8887 199.542 94.8202 199.591 94.752L199.554 94.8022ZM337.006 92.4899C336.499 93.1157 335.97 93.7157 335.416 94.2897C335.97 93.7154 336.5 93.1151 337.007 92.4888L337.006 92.4899ZM166.153 9.73225C163.448 14.9574 156.654 22.0665 151.052 27.2641C143.752 34.0478 134.756 41.7444 124.065 50.3544L90.0393 91.1868C89.3769 91.9822 88.7309 92.8388 88.1643 93.7082C88.7307 92.8393 89.3763 91.9837 90.0382 91.1889L124.065 50.3565C134.755 41.7466 143.751 34.0498 151.051 27.2662C156.654 22.068 163.449 14.9577 166.153 9.73225ZM84.8116 93.3067C84.7799 93.4098 84.7511 93.513 84.7217 93.6152C84.7514 93.5119 84.7806 93.4077 84.8126 93.3035L84.8116 93.3067ZM365.083 75.6639C357.929 82.8228 351.36 88.7411 344.956 93.2136C351.36 88.7409 357.93 82.8232 365.085 75.6639L364.563 75.1421L365.083 75.6639ZM85.285 91.9387C85.2803 91.9509 85.2761 91.9632 85.2714 91.9753C85.2763 91.9625 85.2811 91.9495 85.2861 91.9367L85.285 91.9387ZM108.961 90.1682C108.394 90.6787 107.825 91.1812 107.257 91.6752C107.65 91.3331 108.044 90.988 108.438 90.6378L108.961 90.1682ZM85.6654 91.0069C85.6438 91.057 85.6239 91.1076 85.6027 91.1575C85.6242 91.1069 85.6446 91.0556 85.6665 91.0048L85.6654 91.0069ZM109.016 90.119C109.113 90.0315 109.211 89.9446 109.308 89.8565L109.888 89.3274C109.598 89.593 109.307 89.8569 109.016 90.119ZM289.487 59.8493C281.514 68.1243 265.568 78.2652 252.921 85.5771C251.93 87.0105 251.044 88.3835 250.279 89.6693C251.044 88.3839 251.93 87.0121 252.921 85.5792C265.569 78.2669 281.514 68.1245 289.487 59.8493ZM198.076 88.5493C197.96 88.6618 197.845 88.7733 197.73 88.885C198.117 88.5085 198.506 88.1286 198.895 87.744L198.076 88.5493ZM116.244 83.2293C115.071 84.4028 113.869 85.5798 112.652 86.7421C113.259 86.1618 113.864 85.5791 114.463 84.9936L116.243 83.2314L121.355 78.1143L121.515 78.2732L121.516 78.2722L121.356 78.1122L116.244 83.2293ZM163.496 49.18C155.673 49.18 140.159 64.4436 131.685 74.6192C128.102 78.9219 125.082 82.9638 122.735 86.5225C124.895 83.2472 127.626 79.5634 130.841 75.643L131.685 74.6213C140.159 64.4458 155.673 49.1822 163.496 49.1821C165.178 49.1821 166.409 50.0098 166.905 51.4358C166.41 50.0088 165.179 49.1801 163.496 49.18ZM288.643 77.2285C286.189 79.6835 283.288 82.4586 280.153 85.2445C282.892 82.8106 285.453 80.3861 287.693 78.1749L288.643 77.2306L289.962 75.9097L288.643 77.2285ZM201.209 84.3044C201.381 84.125 201.555 83.9468 201.726 83.7668L202.062 83.4123C201.779 83.7106 201.494 84.0076 201.209 84.3044ZM170.014 76.8373C166.624 80.2292 162.713 83.7511 158.28 83.7511C155.86 83.7511 154.056 82.7646 153.038 81.0456L153.039 81.0477C154.057 82.7665 155.861 83.7531 158.28 83.7532C162.713 83.7532 166.624 80.2312 170.014 76.8394L170.933 75.9191L170.932 75.9181L170.014 76.8373ZM236.191 79.7269C236.326 80.0913 236.49 80.427 236.683 80.7329C236.732 80.8097 236.782 80.8848 236.834 80.9578C237.768 82.2683 239.286 82.9699 241.339 82.9699C238.716 82.9699 236.967 81.8239 236.191 79.7269ZM92.1253 77.2285C90.1756 79.1795 88.3381 81.0001 86.5925 82.7074C87.7395 81.5856 88.9264 80.415 90.1584 79.1904L92.1243 77.2306L110.637 58.7052H110.897L110.898 58.7041H110.638L92.1253 77.2285ZM243.724 82.6091C243.782 82.5916 243.84 82.5755 243.898 82.5568L243.911 82.5516C243.849 82.5719 243.787 82.5902 243.724 82.6091ZM245.843 81.6857C245.895 81.6563 245.948 81.6281 246 81.5978L246.067 81.557C245.993 81.6011 245.918 81.6435 245.843 81.6857ZM352.991 50.8596C350.658 53.4739 349.288 59.5085 344.615 76.3165C344.18 77.8795 343.714 79.3788 343.208 80.8135C343.586 79.7415 343.942 78.6337 344.28 77.4899L344.615 76.3165C349.288 59.5082 350.659 53.4728 352.992 50.8585L352.991 50.8596ZM211.697 72.6311L212.505 71.67C212.24 71.9865 211.971 72.307 211.697 72.6311ZM248.977 80.391C248.999 80.3728 249.021 80.3548 249.043 80.3366V80.3345C249.021 80.353 248.999 80.3726 248.977 80.391ZM291.381 50.253C290.676 50.253 289.615 50.5874 288.204 51.3448C286.824 52.0856 285.229 53.1654 283.493 54.5C280.025 57.1672 276.085 60.7835 272.321 64.5502C267.522 69.3524 262.408 75.0361 258.179 80.3899C265.447 76.0533 273.249 70.9434 279.613 66.0279C283.485 63.0368 286.793 60.1417 289.123 57.5579C290.288 56.266 291.186 55.076 291.787 54.0127C292.395 52.9382 292.657 52.0703 292.657 51.4002C292.657 50.9122 292.535 50.6664 292.416 50.5427C292.306 50.4278 292.041 50.2531 291.381 50.253ZM251.357 77.2285C250.994 77.5807 250.637 77.9202 250.286 78.2471C250.628 77.9288 250.976 77.5991 251.329 77.2567L251.357 77.2285ZM167.927 52.834C167.926 59.3568 159.714 69.7923 152.805 77.4889C159.715 69.792 167.928 59.3577 167.928 52.8351L167.927 52.834ZM316.311 41.8761C313.834 45.1374 312.27 48.7905 312.27 52.5736V52.7033L289.701 75.1567L289.702 75.1578L312.272 52.7044V52.5736C312.272 49.0268 313.647 45.5946 315.86 42.4921L316.313 41.8761H316.311ZM291.381 49.18C287.47 49.18 279.126 56.2255 271.564 63.792C269.834 65.5229 268.064 67.3692 266.307 69.273C267.675 67.791 269.051 66.3438 270.409 64.9591L271.564 63.792C279.126 56.2257 287.47 49.1821 291.381 49.1821C292.967 49.1823 293.64 49.9825 293.72 51.1545C293.641 49.9813 292.968 49.1801 291.381 49.18ZM245.51 55.1819C242.553 58.7695 239.534 63.2826 237.512 67.6604C237.788 67.0635 238.082 66.464 238.392 65.8648C238.702 65.2655 239.028 64.6664 239.367 64.0702C241.176 60.8904 243.359 57.7909 245.51 55.1819L250.073 49.7039H256.852L256.853 49.7029L250.073 49.7039L245.51 55.1819ZM315.485 56.9995C315.673 57.0994 315.87 57.1875 316.073 57.2682C315.953 57.2205 315.834 57.171 315.72 57.1166L315.485 56.9995ZM312.27 53.6184C312.484 55.1131 313.242 56.3351 314.373 57.2013C313.242 56.335 312.485 55.1123 312.272 53.6173L312.27 53.6184ZM207.22 51.7914C207.262 51.9504 207.299 52.1139 207.329 52.2818L207.28 52.0329C207.244 51.8694 207.201 51.7104 207.153 51.5561L207.22 51.7914ZM230.778 49.7039H237.036L237.037 49.7029H230.779L230.778 49.7039ZM203.275 48.5358C203.449 48.5438 203.618 48.5601 203.782 48.5839C203.536 48.5481 203.28 48.5295 203.011 48.5295C203.1 48.5295 203.188 48.5317 203.275 48.5358ZM164.741 4.17276C162.786 4.17276 161.091 5.86936 157.18 10.5658L126.151 47.7451L126.153 47.7431L157.179 10.5679C161.09 5.87145 162.785 4.17485 164.74 4.17485C166.044 4.17485 166.565 4.82777 166.565 6.00187C166.565 6.59873 166.402 7.28898 166.106 8.05478C166.402 7.28808 166.566 6.59723 166.566 5.99978C166.566 4.82574 166.045 4.17282 164.741 4.17276ZM164.74 5.24575C164.13 5.24575 163.46 5.48807 162.397 6.41705C161.315 7.36299 159.966 8.89416 158.001 11.2529L158 11.2539L134.462 39.4571C140.26 34.5621 145.242 30.1711 149.805 25.9569C153.367 22.651 157.338 18.6109 160.409 14.8619C161.946 12.9857 163.239 11.2052 164.141 9.64232C165.067 8.04069 165.495 6.81338 165.495 6.00187C165.495 5.55176 165.393 5.41451 165.365 5.38485C165.349 5.36713 165.228 5.24576 164.74 5.24575ZM158.754 18.4271C158.71 18.4764 158.665 18.5252 158.62 18.5745C158.665 18.5245 158.711 18.475 158.756 18.425L158.754 18.4271ZM162.359 14.132C162.296 14.2133 162.231 14.2939 162.167 14.3756C162.232 14.2931 162.297 14.212 162.361 14.1299L162.359 14.132ZM167.342 6.10541C167.331 6.29339 167.308 6.48758 167.274 6.68792C167.308 6.48833 167.331 6.29483 167.342 6.1075V6.10541Z" fill="#E5FEB3" style="fill:#E5FEB3;fill:color(display-p3 0.8980 0.9961 0.7020);fill-opacity:1;"/>
<path fill-rule="evenodd" clip-rule="evenodd" d="M143.573 1.4955L142.92 2.43568C139.461 7.42033 133.005 12.6804 119.748 12.6804H116.228C110.488 12.6804 107.329 12.9552 104.227 14.7249C101.052 16.5358 97.8486 19.9583 92.28 26.645L66.8574 57.171L66.8564 57.1731L61.7552 63.2764C63.3282 63.9045 65.1848 64.2855 67.2086 64.2856C70.1607 64.2856 72.9001 63.6064 75.208 62.674C77.4536 58.9061 80.4534 55.0282 84.2106 51.5278L84.5179 51.2402H94.4727L92.7555 53.0484C87.867 58.1976 82.7702 62.5535 77.2271 65.0166C75.1779 68.7157 74.1461 72.0784 74.1461 75.0103C74.1461 76.7688 74.6126 78.2903 75.3187 79.5857L75.811 80.4882L73.3173 81.9848L72.7854 80.9975C71.7994 79.1652 71.2229 77.1654 71.2229 75.0103C71.2229 72.3358 71.9311 69.3607 73.2389 66.3573C71.3399 66.8767 69.3135 67.2107 67.2086 67.2107C64.4148 67.2106 61.9028 66.6696 59.7861 65.6566L53.5583 73.0892C44.7193 83.7758 35.3337 92.499 24.2113 97.2828C28.3884 99.2178 33.1004 100.683 39.5704 100.683C43.4125 100.683 47.1003 100.299 50.5138 99.4131L51.6457 99.1192L52.1306 102.031L51.1723 102.271C47.4128 103.212 43.149 103.608 38.7886 103.608C34.8899 103.608 31.585 103.31 28.1221 103.017C24.6569 102.724 21.0107 102.433 16.3645 102.433H0L5.69486 95.5949H17.0167C18.7757 95.5949 20.1962 95.4978 21.6068 95.0877C23.0089 94.68 24.4648 93.944 26.243 92.5861C29.8461 89.8346 34.6265 84.6487 42.7883 74.8482L54.4059 60.8459C52.99 58.5671 52.1892 55.8327 52.1892 52.5726C52.1892 48.4286 53.5669 44.3437 55.4311 40.6128L55.846 39.7824L58.6794 40.7278L58.1275 41.8322C56.336 45.4177 55.1124 49.0277 55.1124 52.5726C55.1124 54.9016 55.5721 56.8818 56.4031 58.5399L59.7349 54.5L59.7391 54.4948L77.5992 33.0997C81.2056 28.7693 86.0791 23.4292 91.5474 18.9657C95.3489 15.8627 99.4938 13.1374 103.745 11.4944C96.4216 10.5605 88.7144 9.41851 78.8115 9.41851C59.306 9.41868 34.7057 19.589 19.0066 38.1311L19.0055 38.1321C16.1086 41.5463 13.8789 44.7721 12.3784 47.696C10.8726 50.6303 10.1346 53.197 10.1345 55.3115C10.1345 56.9099 10.7287 58.1046 11.6803 58.9154C12.6513 59.7426 14.0816 60.2414 15.843 60.2415C17.7999 60.2415 20.2 59.5559 22.9164 58.2555C25.6185 56.9619 28.5592 55.0957 31.5773 52.8246C37.6133 48.2825 43.878 42.1789 49.0475 35.9715C54.8805 28.9673 59.1685 21.5742 60.1603 16.2403L60.3683 15.1213L61.4719 15.3974L61.9934 15.5271L62.8954 15.7529L62.7982 16.6785C61.9891 24.3696 57.9661 33.6952 50.6915 42.4304C46.0509 48.0026 39.9662 53.197 33.863 57.0037C27.7944 60.7887 21.5559 63.2961 16.6258 63.2963C13.9121 63.2963 11.5613 62.6007 9.86803 61.2109C8.15031 59.801 7.21133 57.7584 7.21133 55.3115C7.2114 49.9515 10.5649 43.6962 16.4554 36.623C32.303 17.5937 57.8955 6.49462 78.8115 6.49444C87.4225 6.49444 94.1932 7.31683 100.541 8.13322C106.892 8.95013 112.788 9.75523 119.748 9.75526C131.672 9.75526 137.462 5.21459 140.51 0.823048L141.082 0L143.573 1.4955ZM21.5817 97.1897C26.4053 99.6683 31.7505 101.755 39.5725 101.755C43.4829 101.755 47.263 101.363 50.7824 100.451C47.2624 101.364 43.4815 101.754 39.5704 101.754C31.7499 101.754 26.4057 99.6666 21.5828 97.1887L21.5817 97.1897ZM21.1606 96.305C20.0458 96.5525 18.9177 96.6402 17.6772 96.6605L17.0167 96.6658H6.19548L2.28463 101.362H2.28777L6.19757 96.6679H17.0188C18.5247 96.6679 19.8517 96.5954 21.1606 96.305ZM54.6922 59.1622C54.9973 59.7822 55.3461 60.3681 55.7363 60.9212L43.6119 75.5322C37.2562 83.1639 32.9028 88.0566 29.532 91.1868C32.9029 88.0566 37.258 83.1653 43.6139 75.5332L55.7384 60.9223C55.3479 60.3687 54.9974 59.7829 54.6922 59.1622ZM73.4062 79.8492C72.6949 78.3367 72.2952 76.7237 72.2952 75.0114C72.2953 71.8806 73.3382 68.2278 75.2937 64.5753C75.2923 64.5758 75.2908 64.5758 75.2895 64.5763C73.3349 68.2281 72.2931 71.8802 72.2931 75.0103C72.2931 76.8447 72.7526 78.5641 73.5619 80.1693L73.4062 79.8492ZM60.2314 63.7595C62.1562 64.7451 64.5609 65.3575 67.2107 65.3575C70.4699 65.3575 73.4688 64.5752 75.9458 63.5316C78.1621 59.7484 81.1604 55.8345 84.9412 52.3122H91.978L91.979 52.3111H84.9391C81.1584 55.8334 78.16 59.7474 75.9437 63.5305C73.4667 64.5741 70.4678 65.3565 67.2086 65.3565C64.5598 65.3564 62.1559 64.7444 60.2314 63.7595ZM28.235 56.4692C23.5895 59.4648 19.2504 61.3124 15.843 61.3124C14.9041 61.3123 14.0257 61.1835 13.2323 60.9369C14.0263 61.184 14.9053 61.3134 15.8451 61.3134C19.2523 61.3134 23.5898 59.4645 28.235 56.4692ZM109.445 11.0876C97.713 12.6555 85.5902 25.1777 78.4207 33.7868L60.5606 55.1808L56.2578 60.3983L56.2599 60.4004L60.5627 55.1829L78.4227 33.7878C85.5931 25.1778 97.718 12.6541 109.451 11.0887C109.449 11.0885 109.447 11.0878 109.445 11.0876ZM78.8115 7.56535C58.2131 7.56552 32.9212 18.5236 17.2769 37.3091C11.4105 44.3535 8.2816 50.3543 8.28154 55.3115C8.28154 57.1851 8.89994 58.7364 10.0164 59.8922C8.90116 58.7365 8.28363 57.1851 8.28363 55.3126C8.28379 50.3554 11.4126 44.3545 17.279 37.3101C32.9233 18.5247 58.2152 7.56656 78.8136 7.56639C81.423 7.56639 83.8624 7.64237 86.1723 7.77137C83.8616 7.6423 81.4219 7.56535 78.8115 7.56535ZM53.5217 55.5719C53.3507 54.6338 53.2615 53.6357 53.2615 52.5736C53.2615 48.6601 54.5655 44.7465 56.3905 41.0938L57.1692 41.3532L56.3885 41.0917C54.5633 44.7445 53.2594 48.6589 53.2594 52.5726L53.2698 53.2001C53.2982 54.0306 53.3846 54.8204 53.5217 55.5719ZM61.2117 16.4359C60.1687 22.0454 55.7366 29.6119 49.87 36.6565L48.8793 37.8288C44.3657 43.0983 39.1214 48.2325 33.9403 52.3498C39.5053 47.9276 45.145 42.3337 49.8721 36.6575C55.7387 29.613 60.1708 22.0464 61.2138 16.4369L61.7322 16.5666L61.2117 16.4359ZM141.39 1.4338C138.131 6.13019 132.003 10.8262 119.748 10.8262C107.927 10.8261 99.1374 8.52864 86.5141 7.79124C99.1386 8.52861 107.928 10.8272 119.75 10.8272C132.005 10.8272 138.133 6.13124 141.392 1.43484L141.39 1.4338Z" fill="#E5FEB3" style="fill:#E5FEB3;fill:color(display-p3 0.8980 0.9961 0.7020);fill-opacity:1;"/>
</svg>
